<svg width="140" height="123" viewBox="0 0 140 123" fill="none" xmlns="http://www.w3.org/2000/svg">
<g filter="url(#filter0_d_3750_24179)">
<rect x="18" y="10" width="104" height="87" rx="8" fill="#F2F2F2" shape-rendering="crispEdges"/>
<g clip-path="url(#clip0_3750_24179)">
<path d="M65.9147 25C65.9147 24.7348 66.0223 24.4804 66.2139 24.2929C66.4054 24.1054 66.6652 24 66.936 24H75.1062C75.3771 24 75.6369 24.1054 75.8284 24.2929C76.0199 24.4804 76.1275 24.7348 76.1275 25C76.1275 25.2652 76.0199 25.5196 75.8284 25.7071C75.6369 25.8946 75.3771 26 75.1062 26H66.936C66.6652 26 66.4054 25.8946 66.2139 25.7071C66.0223 25.5196 65.9147 25.2652 65.9147 25ZM66.936 28C66.6652 28 66.4054 28.1054 66.2139 28.2929C66.0223 28.4804 65.9147 28.7348 65.9147 29C65.9147 29.2652 66.0223 29.5196 66.2139 29.7071C66.4054 29.8946 66.6652 30 66.936 30H75.1062C75.3771 30 75.6369 29.8946 75.8284 29.7071C76.0199 29.5196 76.1275 29.2652 76.1275 29C76.1275 28.7348 76.0199 28.4804 75.8284 28.2929C75.6369 28.1054 75.3771 28 75.1062 28H66.936ZM65.9147 38C65.9147 37.7348 66.0223 37.4804 66.2139 37.2929C66.4054 37.1054 66.6652 37 66.936 37H75.1062C75.3771 37 75.6369 37.1054 75.8284 37.2929C76.0199 37.4804 76.1275 37.7348 76.1275 38C76.1275 38.2652 76.0199 38.5196 75.8284 38.7071C75.6369 38.8946 75.3771 39 75.1062 39H66.936C66.6652 39 66.4054 38.8946 66.2139 38.7071C66.0223 38.5196 65.9147 38.2652 65.9147 38ZM66.936 41C66.6652 41 66.4054 41.1054 66.2139 41.2929C66.0223 41.4804 65.9147 41.7348 65.9147 42C65.9147 42.2652 66.0223 42.5196 66.2139 42.7071C66.4054 42.8946 66.6652 43 66.936 43H75.1062C75.3771 43 75.6369 42.8946 75.8284 42.7071C76.0199 42.5196 76.1275 42.2652 76.1275 42C76.1275 41.7348 76.0199 41.4804 75.8284 41.2929C75.6369 41.1054 75.3771 41 75.1062 41H66.936Z" fill="#0D7590"/>
<path fill-rule="evenodd" clip-rule="evenodd" d="M55.702 37C55.702 36.7348 55.8096 36.4804 56.0011 36.2929C56.1926 36.1054 56.4524 36 56.7232 36H61.8296C62.1005 36 62.3603 36.1054 62.5518 36.2929C62.7433 36.4804 62.8509 36.7348 62.8509 37V42C62.8509 42.2652 62.7433 42.5196 62.5518 42.7071C62.3603 42.8946 62.1005 43 61.8296 43H56.7232C56.4524 43 56.1926 42.8946 56.0011 42.7071C55.8096 42.5196 55.702 42.2652 55.702 42V37ZM57.7445 38V41H60.8083V38H57.7445Z" fill="#0D7590"/>
<path d="M63.573 25.7069C63.759 25.5183 63.8619 25.2657 63.8596 25.0035C63.8573 24.7413 63.7499 24.4905 63.5605 24.3051C63.3712 24.1197 63.115 24.0145 62.8472 24.0122C62.5795 24.01 62.3215 24.1108 62.1289 24.2929L58.7658 27.5859L57.4453 26.2929C57.2527 26.1108 56.9947 26.01 56.7269 26.0122C56.4592 26.0145 56.203 26.1197 56.0137 26.3051C55.8243 26.4905 55.7169 26.7413 55.7146 27.0035C55.7123 27.2657 55.8152 27.5183 56.0012 27.7069L58.7658 30.4139L63.573 25.7069Z" fill="#0D7590"/>
<path fill-rule="evenodd" clip-rule="evenodd" d="M55.702 16C54.6186 16 53.5795 16.4214 52.8134 17.1716C52.0473 17.9217 51.6169 18.9391 51.6169 20V48C51.6169 49.0609 52.0473 50.0783 52.8134 50.8284C53.5795 51.5786 54.6186 52 55.702 52H76.1275C77.211 52 78.25 51.5786 79.0161 50.8284C79.7822 50.0783 80.2126 49.0609 80.2126 48V20C80.2126 18.9391 79.7822 17.9217 79.0161 17.1716C78.25 16.4214 77.211 16 76.1275 16H55.702ZM53.6594 20C53.6594 19.4696 53.8746 18.9609 54.2577 18.5858C54.6407 18.2107 55.1603 18 55.702 18H76.1275C76.6692 18 77.1888 18.2107 77.5718 18.5858C77.9549 18.9609 78.1701 19.4696 78.1701 20V48C78.1701 48.5304 77.9549 49.0391 77.5718 49.4142C77.1888 49.7893 76.6692 50 76.1275 50H55.702C55.1603 50 54.6407 49.7893 54.2577 49.4142C53.8746 49.0391 53.6594 48.5304 53.6594 48V20ZM82.2552 26C82.2552 25.2044 82.578 24.4413 83.1526 23.8787C83.7271 23.3161 84.5064 23 85.319 23C86.1316 23 86.9109 23.3161 87.4855 23.8787C88.06 24.4413 88.3828 25.2044 88.3828 26V46.303L85.319 50.803L82.2552 46.303V26ZM85.319 25C85.0481 25 84.7884 25.1054 84.5969 25.2929C84.4053 25.4804 84.2977 25.7348 84.2977 26V28H86.3403V26C86.3403 25.7348 86.2327 25.4804 86.0412 25.2929C85.8496 25.1054 85.5899 25 85.319 25ZM85.319 47.197L84.2977 45.697V30H86.3403V45.697L85.319 47.197Z" fill="#0D7590"/>
</g>
<path d="M61.5047 76C60.3686 76 59.3526 75.7378 58.4569 75.2135C57.5829 74.6673 56.8947 73.9354 56.3922 73.0178C55.8897 72.0783 55.6385 71.0187 55.6385 69.8389V68.1675H58.588V69.8389C58.588 70.4506 58.6863 71.0514 58.8829 71.6413C59.1014 72.2312 59.4291 72.7228 59.8661 73.1161C60.303 73.5093 60.8492 73.706 61.5047 73.706H62.6844V76H61.5047ZM47.1178 76C46.7027 76 46.4077 75.8908 46.2329 75.6723C46.08 75.432 46.0035 75.1589 46.0035 74.853C46.0035 74.5471 46.08 74.2849 46.2329 74.0665C46.4077 73.8261 46.7027 73.706 47.1178 73.706H51.5092C52.8638 73.706 53.8906 73.2035 54.5898 72.1985C55.2889 71.1716 55.6385 69.7733 55.6385 68.0037C55.6385 66.6928 55.4528 65.6113 55.0814 64.7592C54.7099 63.9072 54.1528 63.3063 53.41 62.9568C52.689 62.5854 51.8042 62.487 50.7555 62.6618L52.6562 62.3013C51.9789 62.4324 51.3672 62.6291 50.821 62.8912C50.2748 63.1534 49.8488 63.5248 49.5429 64.0055C49.237 64.4861 49.0841 65.1307 49.0841 65.939C48.9093 65.9609 48.669 65.9609 48.3631 65.939C48.0791 65.8953 47.8169 65.8189 47.5766 65.7096C47.2926 65.5785 47.0413 65.371 46.8228 65.087C46.6044 64.8029 46.4951 64.4097 46.4951 63.9072C46.4951 63.3828 46.6153 62.9022 46.8556 62.4652C47.1178 62.0064 47.4783 61.6241 47.9371 61.3182C48.4177 60.9905 48.9749 60.7392 49.6084 60.5644C50.242 60.3678 50.9412 60.2695 51.7059 60.2695C52.7546 60.2695 53.694 60.4443 54.5242 60.7938C55.3763 61.1434 56.1082 61.6568 56.72 62.3341C57.3317 63.0114 57.7905 63.8307 58.0964 64.792C58.4241 65.7533 58.588 66.8566 58.588 68.102C58.588 69.9153 58.2602 71.4119 57.6048 72.5917C56.9494 73.7497 56.0864 74.6127 55.0158 75.1807C53.9453 75.7269 52.7764 76 51.5092 76H47.1178ZM62.6844 76V73.706C62.9466 73.706 63.1214 73.8043 63.2088 74.0009C63.2962 74.1975 63.3399 74.4816 63.3399 74.853C63.3399 75.2026 63.2962 75.4866 63.2088 75.7051C63.1214 75.9017 62.9466 76 62.6844 76ZM62.6711 76V73.706H79.7781C80.6738 73.706 81.3839 73.3455 81.9082 72.6245C82.4326 71.9035 82.6948 70.7128 82.6948 69.0524C82.6948 66.7365 82.1704 65.076 81.1217 64.071C80.0949 63.066 78.6966 62.5635 76.9269 62.5635C75.5286 62.5635 74.3488 62.8257 73.3875 63.35C72.4262 63.8744 71.6397 64.5517 71.028 65.3819C70.4162 66.2121 69.9137 67.1079 69.5205 68.0692C69.149 69.0087 68.8322 69.9044 68.5701 70.7565L67.2264 70.1011C67.4231 69.4456 67.6306 68.6919 67.8491 67.8398C68.0894 66.9659 68.4062 66.092 68.7995 65.218C69.1927 64.3441 69.728 63.5358 70.4053 62.7929C71.0826 62.0282 71.9456 61.4165 72.9943 60.9577C74.043 60.4989 75.3539 60.2695 76.9269 60.2695C79.6797 60.2695 81.8208 61.0342 83.3502 62.5635C84.8796 64.0929 85.6442 66.2558 85.6442 69.0524C85.6442 71.259 85.1308 72.9741 84.104 74.1975C83.0989 75.3992 81.657 76 79.7781 76H62.6711ZM65.6206 76V65.7424C65.6206 65.1306 65.4349 64.5408 65.0635 63.9727C64.7139 63.4047 64.3534 62.9786 63.982 62.6946C64.1568 62.5417 64.419 62.3887 64.7685 62.2358C65.1181 62.061 65.5004 61.9736 65.9155 61.9736C66.1777 61.9736 66.4617 62.0282 66.7676 62.1375C67.0735 62.2467 67.3575 62.4324 67.6197 62.6946C67.9037 62.9568 68.1331 63.3282 68.3079 63.8089C68.4827 64.2895 68.5701 64.9122 68.5701 65.6768V76H65.6206ZM62.6711 76C62.409 76 62.2342 75.9017 62.1468 75.7051C62.0594 75.4866 62.0157 75.2026 62.0157 74.853C62.0157 74.4816 62.0594 74.1975 62.1468 74.0009C62.2342 73.8043 62.409 73.706 62.6711 73.706V76ZM90.1545 83.5048C89.8704 83.5048 89.6192 83.472 89.4007 83.4065C89.1822 83.3409 88.9856 83.2535 88.8108 83.1443C88.6579 83.035 88.5268 82.9367 88.4176 82.8493C89.2915 82.1065 89.9141 81.32 90.2856 80.4898C90.6788 79.6595 90.9301 78.8402 91.0393 78.0319C91.1485 77.2453 91.2032 76.568 91.2032 76V61.7114C91.2032 61.1652 91.3452 60.7938 91.6292 60.5972C91.9132 60.3787 92.2628 60.2695 92.6779 60.2695C93.093 60.2695 93.4426 60.3787 93.7266 60.5972C94.0106 60.7938 94.1526 61.1652 94.1526 61.7114V76C94.1526 76.7647 94.0871 77.584 93.956 78.4579C93.8249 79.3318 93.6064 80.1511 93.3006 80.9158C92.9947 81.6805 92.5796 82.3031 92.0552 82.7838C91.5527 83.2644 90.9191 83.5048 90.1545 83.5048Z" fill="#0D7590"/>
</g>
<defs>
<filter id="filter0_d_3750_24179" x="0" y="0" width="140" height="123" filterUnits="userSpaceOnUse" color-interpolation-filters="sRGB">
<feFlood flood-opacity="0" result="BackgroundImageFix"/>
<feColorMatrix in="SourceAlpha" type="matrix" values="0 0 0 0 0 0 0 0 0 0 0 0 0 0 0 0 0 0 127 0" result="hardAlpha"/>
<feOffset dy="8"/>
<feGaussianBlur stdDeviation="9"/>
<feComposite in2="hardAlpha" operator="out"/>
<feColorMatrix type="matrix" values="0 0 0 0 0.121569 0 0 0 0 0.509804 0 0 0 0 0.584314 0 0 0 0.4 0"/>
<feBlend mode="normal" in2="BackgroundImageFix" result="effect1_dropShadow_3750_24179"/>
<feBlend mode="normal" in="SourceGraphic" in2="effect1_dropShadow_3750_24179" result="shape"/>
</filter>
<clipPath id="clip0_3750_24179">
<rect width="49.0213" height="48" fill="white" transform="translate(45.4894 10)"/>
</clipPath>
</defs>
</svg>
